<svg viewBox="0 0 24 24" xmlns="http://www.w3.org/2000/svg">
	<path d="m12 0.02c-6.627 0-12 5.373-12 12s5.373 12 12 12 12-5.373 12-12-5.373-12-12-12z"/>
	<path d="m13.959 20.217c-0.61746-0.10703-1.3184-0.49407-1.7605-0.97206-0.5984-0.64701-1.6507-2.1633-2.5575-3.685l-0.50265-0.84351-0.41798-0.037912c-0.22989-0.02085-0.60263-0.0294-0.82831-0.019l-0.41033 0.01891 0.016798 2.081c0.016243 2.0121 0.021093 2.0897 0.14655 2.3438 0.17141 0.34718 0.38402 0.45819 1.0467 0.54658l0.54846 0.07314 0.018369 0.18889 0.018369 0.18889h-2.3522-2.3522l0.018369-0.18596c0.017807-0.18027 0.030915-0.18846 0.4287-0.26784 0.47079-0.09395 0.69805-0.20959 0.87315-0.44428 0.11334-0.15192 0.12642-0.26857 0.16097-1.4362 0.048382-1.635 0.048382-5.6547 0-7.2897-0.034259-1.1577-0.048373-1.2855-0.15862-1.4361-0.15579-0.21285-0.43638-0.3505-0.90833-0.4456-0.35899-0.07234-0.37836-0.084887-0.39524-0.25596l-0.017748-0.17989 2.4211-0.029537c2.682-0.03272 3.512 0.00569 4.121 0.19075 0.79771 0.24237 1.5919 0.84948 1.8992 1.4519 0.3275 0.64194 0.38593 1.747 0.12816 2.4235-0.36009 0.94508-1.2526 1.8445-2.1145 2.1308-0.40736 0.1353-0.44518 0.20186-0.28906 0.50871 0.4149 0.81549 1.9579 2.9336 2.7135 3.7249 0.66404 0.69541 1.0086 0.94573 1.5583 1.1322 0.41604 0.14113 0.44214 0.16016 0.44214 0.32215 0 0.15484-0.02358 0.17634-0.23447 0.21374-0.29984 0.05317-0.92084 0.04766-1.2603-0.01118zm-4.1912-6.3598c0.22568-0.047592 0.57347-0.16664 0.77287-0.26456 1.2154-0.59683 1.6815-2.344 0.97272-3.6463-0.32876-0.60404-0.99803-1.0047-1.8398-1.1015-0.63011-0.072442-1.9893-0.072517-2.104-1.146e-4 -0.075443 0.047654-0.090424 0.40898-0.10551 2.5448l-0.017584 2.4893 0.16413 0.0247c0.42281 0.06364 1.7733 0.03465 2.1572-0.0463z" fill="#fff" stroke="#fff" stroke-width=".0058618"/>
	<path d="m16.616 10.606c-0.71044-0.15182-1.2136-0.6278-1.4937-1.413-0.12543-0.35163-0.13429-0.46788-0.13581-1.783-0.0014-1.2249 0.01258-1.4485 0.10832-1.7292 0.37822-1.109 1.061-1.5615 2.284-1.5137 0.69141 0.027019 1.14 0.19326 1.5225 0.56423 0.22922 0.22229 0.48302 0.58489 0.43971 0.6282-0.06946 0.069459-0.69253 0.31254-0.69253 0.27018 0-0.10947-0.4981-0.60619-0.72286-0.72085-0.53677-0.27384-1.4041-0.081456-1.7648 0.39145-0.32134 0.42129-0.34985 0.58713-0.35268 2.0511-0.0028 1.4258 0.02908 1.6587 0.2771 2.0267 0.2956 0.43863 0.90988 0.65744 1.4999 0.53426 0.72816-0.15202 1.11-0.65794 1.1366-1.5059l0.014708-0.46895-0.61549-0.029309-0.61549-0.029309-0.017445-0.29986c-0.01715-0.2948-0.0143-0.30049 0.16853-0.33706 0.10228-0.020457 0.57448-0.037195 1.0493-0.037195h0.86334l-0.01921 0.27844c-0.01056 0.15314-0.03009 0.5686-0.0434 0.92324-0.04053 1.0802-0.33688 1.6108-1.1143 1.995-0.38068 0.18814-0.48848 0.2139-0.97967 0.23408-0.30356 0.01247-0.66202-8.5e-4 -0.79657-0.02961z" fill="#fff" stroke="#fff" stroke-width=".0058618"/>
</svg>
