<?xml version="1.0" encoding="utf-8"?>

<!-- License Agreement at http://iconmonstr.com/license/ -->

<!DOCTYPE svg PUBLIC "-//W3C//DTD SVG 1.1//EN" "http://www.w3.org/Graphics/SVG/1.1/DTD/svg11.dtd">
<svg version="1.1" xmlns="http://www.w3.org/2000/svg" xmlns:xlink="http://www.w3.org/1999/xlink" x="0px" y="0px"
	 width="512px" height="512px" viewBox="0 0 512 512" style="enable-background:new 0 0 512 512;" xml:space="preserve">
<path id="id-card-13-icon" d="M425.245,194.801v187.962H152.367V194.801H425.245z M462,158.045H115.612v261.474H462V158.045z
	 M301.126,321.649c-19.232-4.438-37.136-8.322-28.466-24.667c26.393-49.757,6.995-76.367-20.872-76.367
	c-28.419,0-47.337,27.631-20.874,76.367c8.93,16.444-9.645,20.324-28.466,24.667c-19.225,4.433-17.746,14.568-17.746,32.96h134.17
	C318.872,336.218,320.35,326.082,301.126,321.649z M394.408,222.905h-68.472v27.566h68.472V222.905z M394.408,274.975h-68.472
	v27.566h68.472V274.975z M394.408,327.043h-40.229v27.566h40.229V327.043z M400.381,92.481H50v266.465h36.755v-229.71h313.626
	V92.481z"/>
</svg>
